<svg width="45" height="46" viewBox="0 0 45 46" fill="none" xmlns="http://www.w3.org/2000/svg">
    <g clip-path="url(#clip0_14_5680)">
        <rect width="45" height="46" rx="22.5" fill="#ffffff" />
        <g clip-path="url(#clip1_14_5680)">
            <path d="M47 39C47 39 32.5262 34.6757 23 34.6757C13.4738 34.6757 -1 39 -1 39C-1 28.0909 2.78933 28.0909 9.10667 28.0909C23 28.0909 12.3333 15.7273 12.3333 9.77441C12.3333 6.91686 13.4571 4.17634 15.4575 2.15575C17.4579 0.135157 20.171 -1 23 -1C25.829 -1 28.5421 0.135157 30.5425 2.15575C32.5429 4.17634 33.6667 6.91686 33.6667 9.77441C33.6667 15.7273 23 28.0909 36.8933 28.0909C43.2107 28.0909 47 28.0909 47 39Z" stroke="#3B82F6" stroke-width="3" stroke-linecap="round" stroke-linejoin="round" />
            <path d="M8 41.7273C13.6177 39.6261 17.0613 39 23 39C28.9387 39 32.3823 39.6261 38 41.7273" stroke="#3B82F6" stroke-width="3" stroke-linecap="round" stroke-linejoin="round" />
        </g>
    </g>
    <defs>
        <clipPath id="clip0_14_5680">
            <rect width="45" height="46" rx="22.5" fill="#ffffff" />
        </clipPath>
        <clipPath id="clip1_14_5680">
            <rect width="48" height="48" fill="#ffffff" transform="translate(-1 -3)" />
        </clipPath>
    </defs>
</svg>
