<svg width="210" height="159" viewBox="0 0 210 159" fill="none" xmlns="http://www.w3.org/2000/svg">
    <g clip-path="url(#clip0_32_6147)">
        <path d="M208.016 68.0342H207.959L175.418 81.9256L130.896 100.932C130.722 101.005 130.535 101.043 130.347 101.044C130.158 101.045 129.971 101.009 129.796 100.938L83.8623 81.8859L50.5222 68.0569L50.4712 68.0342H50.4145C49.8884 68.0348 49.3841 68.2439 49.0121 68.6158C48.6401 68.9877 48.4309 69.4919 48.4303 70.0179V156.166C48.4309 156.692 48.6401 157.196 49.0121 157.568C49.3841 157.94 49.8884 158.149 50.4145 158.15H208.016C208.542 158.149 209.046 157.94 209.418 157.568C209.79 157.196 209.999 156.692 210 156.166V70.0179C209.999 69.4919 209.79 68.9877 209.418 68.6158C209.046 68.2439 208.542 68.0348 208.016 68.0342Z" fill="white" />
        <path d="M208.583 68.6011C208.525 68.6011 208.468 68.5834 208.421 68.5503L130.029 13.9697C129.79 13.8044 129.507 13.716 129.216 13.7165C128.926 13.717 128.643 13.8063 128.405 13.9725L50.5773 68.5497C50.5468 68.5711 50.5124 68.5863 50.4761 68.5944C50.4397 68.6025 50.4022 68.6033 50.3655 68.5969C50.3288 68.5904 50.2938 68.5768 50.2624 68.5569C50.2309 68.5369 50.2038 68.5109 50.1824 68.4805C50.161 68.45 50.1459 68.4156 50.1378 68.3793C50.1297 68.3429 50.1288 68.3054 50.1353 68.2687C50.1417 68.232 50.1553 68.197 50.1753 68.1656C50.1953 68.1342 50.2212 68.107 50.2517 68.0856L128.079 13.5084C128.412 13.2758 128.809 13.1508 129.215 13.1501C129.622 13.1495 130.019 13.2732 130.353 13.5047L208.745 68.0851C208.794 68.1196 208.831 68.169 208.851 68.2261C208.87 68.2832 208.871 68.3451 208.853 68.4026C208.835 68.4602 208.799 68.5105 208.75 68.5462C208.702 68.5819 208.643 68.6011 208.583 68.6011L208.583 68.6011Z" fill="#9E9E9E" />
        <path d="M55.0247 70.5357L129.293 15.5076L204.125 74.4513L133.12 116.534L94.5699 107.749L55.0247 70.5357Z" fill="#E0E0E0" />
        <path d="M97.824 142.526H61.1334C60.9082 142.526 60.685 142.482 60.4768 142.396C60.2686 142.31 60.0793 142.184 59.9199 142.025C59.7605 141.866 59.6341 141.677 59.5478 141.469C59.4615 141.261 59.4171 141.038 59.4171 140.812C59.4171 140.587 59.4615 140.364 59.5478 140.156C59.6341 139.948 59.7605 139.759 59.9199 139.6C60.0793 139.441 60.2686 139.314 60.4768 139.228C60.685 139.142 60.9082 139.098 61.1334 139.099H97.824C98.0493 139.098 98.2725 139.142 98.4807 139.228C98.6889 139.314 98.8781 139.441 99.0375 139.6C99.197 139.759 99.3234 139.948 99.4097 140.156C99.496 140.364 99.5404 140.587 99.5404 140.812C99.5404 141.038 99.496 141.261 99.4097 141.469C99.3234 141.677 99.197 141.866 99.0375 142.025C98.8781 142.184 98.6889 142.31 98.4807 142.396C98.2725 142.482 98.0493 142.526 97.824 142.526Z" fill="#2196F3" />
        <path d="M74.2972 135.158H61.1334C60.9082 135.158 60.685 135.114 60.4768 135.028C60.2686 134.942 60.0793 134.816 59.9199 134.657C59.7605 134.498 59.6341 134.309 59.5478 134.101C59.4615 133.893 59.4171 133.67 59.4171 133.444C59.4171 133.219 59.4615 132.996 59.5478 132.788C59.6341 132.58 59.7605 132.391 59.9199 132.232C60.0793 132.073 60.2686 131.947 60.4768 131.861C60.685 131.775 60.9082 131.73 61.1334 131.731H74.2972C74.5225 131.73 74.7456 131.775 74.9539 131.861C75.1621 131.947 75.3513 132.073 75.5107 132.232C75.6701 132.391 75.7966 132.58 75.8829 132.788C75.9692 132.996 76.0136 133.219 76.0136 133.444C76.0136 133.67 75.9692 133.893 75.8829 134.101C75.7966 134.309 75.6701 134.498 75.5107 134.657C75.3513 134.816 75.1621 134.942 74.9539 135.028C74.7456 135.114 74.5225 135.158 74.2972 135.158Z" fill="#2196F3" />
        <path d="M130.338 101.186C130.059 101.186 129.783 101.132 129.524 101.027L83.7206 82.0261V22.5513C83.7212 22.0254 83.9304 21.5212 84.3024 21.1493C84.6744 20.7774 85.1787 20.5682 85.7048 20.5676H173.576C174.102 20.5682 174.606 20.7774 174.978 21.1493C175.35 21.5212 175.56 22.0254 175.56 22.5513V82.0676L175.474 82.1044L131.176 101.017C130.91 101.129 130.625 101.186 130.338 101.186Z" fill="white" />
        <path d="M130.338 101.327C130.04 101.328 129.746 101.27 129.47 101.158L83.5789 82.1206V22.5512C83.5795 21.9877 83.8037 21.4474 84.2022 21.049C84.6008 20.6505 85.1411 20.4264 85.7048 20.4258H173.576C174.14 20.4264 174.68 20.6505 175.079 21.049C175.477 21.4474 175.701 21.9877 175.702 22.5512V82.161L131.231 101.147C130.948 101.266 130.645 101.328 130.338 101.327ZM84.1458 81.742L129.687 100.634C130.111 100.806 130.587 100.803 131.01 100.626L175.135 81.7868V22.5512C175.135 22.1379 174.97 21.7418 174.678 21.4496C174.386 21.1574 173.989 20.993 173.576 20.9925H85.7048C85.2915 20.993 84.8952 21.1574 84.6029 21.4496C84.3107 21.7418 84.1463 22.1379 84.1458 22.5512V81.742Z" fill="#9E9E9E" />
        <path d="M208.016 68.0342H207.959L175.418 81.9256L130.896 100.932C130.722 101.005 130.535 101.043 130.347 101.044C130.158 101.045 129.971 101.009 129.796 100.938L83.8623 81.8859L50.5222 68.0569L50.4712 68.0342H50.4145C49.8884 68.0348 49.3841 68.2439 49.0121 68.6158C48.6401 68.9877 48.4309 69.4919 48.4303 70.0179V156.166C48.4309 156.692 48.6401 157.196 49.0121 157.568C49.3841 157.94 49.8884 158.149 50.4145 158.15H208.016C208.542 158.149 209.046 157.94 209.418 157.568C209.79 157.196 209.999 156.692 210 156.166V70.0179C209.999 69.4919 209.79 68.9877 209.418 68.6158C209.046 68.2439 208.542 68.0348 208.016 68.0342ZM209.433 156.166C209.433 156.542 209.284 156.902 209.018 157.168C208.752 157.434 208.392 157.583 208.016 157.583H50.4145C50.0387 157.583 49.6783 157.434 49.4125 157.168C49.1467 156.902 48.9974 156.542 48.9972 156.166V70.0179C48.9977 69.6514 49.1399 69.2994 49.394 69.0354C49.6481 68.7713 49.9944 68.6156 50.3607 68.6009L83.8623 82.4981L129.578 101.462C130.073 101.663 130.627 101.66 131.12 101.454L175.418 82.5406L208.073 68.6009C208.438 68.6167 208.784 68.7728 209.037 69.0367C209.29 69.3006 209.432 69.652 209.433 70.0179V156.166Z" fill="#9E9E9E" />
        <path d="M123.207 42.7995H92.0267C91.4253 42.7995 90.8485 42.5607 90.4232 42.1355C89.998 41.7103 89.7591 41.1337 89.7591 40.5324C89.7591 39.9312 89.998 39.3545 90.4232 38.9294C90.8485 38.5042 91.4253 38.2654 92.0267 38.2654H123.207C123.808 38.2654 124.385 38.5042 124.81 38.9294C125.236 39.3545 125.474 39.9312 125.474 40.5324C125.474 41.1337 125.236 41.7103 124.81 42.1355C124.385 42.5607 123.808 42.7995 123.207 42.7995Z" fill="#2196F3" />
        <path d="M107.05 33.1645H92.0267C91.4253 33.1645 90.8485 32.9257 90.4232 32.5005C89.998 32.0753 89.7591 31.4987 89.7591 30.8974C89.7591 30.2962 89.998 29.7195 90.4232 29.2944C90.8485 28.8692 91.4253 28.6304 92.0267 28.6304H107.05C107.651 28.6304 108.228 28.8692 108.653 29.2944C109.079 29.7195 109.317 30.2962 109.317 30.8974C109.317 31.4987 109.079 32.0753 108.653 32.5005C108.228 32.9257 107.651 33.1645 107.05 33.1645Z" fill="#2196F3" />
        <path d="M152.961 65.4702H105.34C104.739 65.4702 104.162 65.2313 103.737 64.8062C103.311 64.381 103.073 63.8044 103.073 63.2031C103.073 62.6018 103.311 62.0252 103.737 61.6C104.162 61.1749 104.739 60.936 105.34 60.936H152.961C153.562 60.936 154.139 61.1749 154.564 61.6C154.989 62.0252 155.228 62.6018 155.228 63.2031C155.228 63.8044 154.989 64.381 154.564 64.8062C154.139 65.2313 153.562 65.4702 152.961 65.4702Z" fill="#E0E0E0" />
        <path d="M152.961 75.9553H105.34C104.739 75.9553 104.162 75.7164 103.737 75.2913C103.311 74.8661 103.073 74.2895 103.073 73.6882C103.073 73.0869 103.311 72.5103 103.737 72.0851C104.162 71.66 104.739 71.4211 105.34 71.4211H152.961C153.562 71.4211 154.139 71.66 154.564 72.0851C154.989 72.5103 155.228 73.0869 155.228 73.6882C155.228 74.2895 154.989 74.8661 154.564 75.2913C154.139 75.7164 153.562 75.9553 152.961 75.9553Z" fill="#E0E0E0" />
        <path d="M11.6069 78.6055C11.3123 78.605 11.0269 78.5027 10.7991 78.316C10.5712 78.1293 10.4149 77.8696 10.3566 77.5809L9.32518 72.4405C8.77818 69.714 9.33699 66.8818 10.8787 64.5672C12.4204 62.2525 14.8186 60.6449 17.5459 60.0981C20.2731 59.5512 23.106 60.1099 25.4212 61.6512C27.7365 63.1925 29.3445 65.5901 29.8915 68.3167L30.9226 73.457C30.9888 73.7885 30.9207 74.1328 30.7333 74.4142C30.5459 74.6956 30.2545 74.8912 29.923 74.9581L11.8583 78.5805C11.7755 78.5971 11.6913 78.6055 11.6069 78.6055Z" fill="#263238" />
        <path d="M43.6771 155.142L40.4366 155.142L38.8958 142.646L43.6782 142.646L43.6771 155.142Z" fill="#A0616A" />
        <path d="M38.1219 154.216H44.3715V158.15H34.187C34.187 157.106 34.6016 156.106 35.3395 155.368C36.0775 154.63 37.0783 154.216 38.1219 154.216Z" fill="#263238" />
        <path d="M9.91216 155.109L6.92822 153.846L10.383 141.738L14.7867 143.603L9.91216 155.109Z" fill="#A0616A" />
        <path d="M5.15795 152.091L10.9126 154.528L9.37802 158.15L-1.31077e-05 154.179C0.201517 153.703 0.494791 153.272 0.863071 152.91C1.23135 152.547 1.66742 152.261 2.14638 152.067C2.62534 151.873 3.13782 151.775 3.65454 151.779C4.17127 151.784 4.68213 151.889 5.15795 152.091Z" fill="#263238" />
        <path d="M19.9053 77.3173C23.7503 77.3173 26.8672 74.2011 26.8672 70.3571C26.8672 66.5131 23.7503 63.397 19.9053 63.397C16.0603 63.397 12.9433 66.5131 12.9433 70.3571C12.9433 74.2011 16.0603 77.3173 19.9053 77.3173Z" fill="#A0616A" />
        <path d="M20.2348 102.02L20.1634 101.788C18.2663 95.6234 16.3054 89.2514 14.3418 83.191L14.2887 83.0275L14.4093 82.9049C17.4573 79.8051 23.1673 78.5686 27.6917 80.0297C32.2451 81.4992 35.383 85.6211 34.9907 89.6178C34.7821 92.0188 35.4273 94.4164 36.8128 96.3887L36.9944 96.6521L36.7104 96.8005C31.6239 99.4173 26.1372 101.169 20.4751 101.985L20.2348 102.02Z" fill="#9E9E9E" />
        <path d="M11.8383 152.864C11.5901 152.863 11.3463 152.798 11.1316 152.673L7.37085 150.502C7.06235 150.326 6.83169 150.04 6.72499 149.701C6.61829 149.363 6.64342 148.996 6.79536 148.675L15.1518 128.852L21.5383 99.9398L33.1772 95.7087L33.283 95.7574C45.7612 101.488 44.7967 142.562 44.4765 150.738C44.4622 151.082 44.3231 151.409 44.0854 151.658C43.8477 151.907 43.5275 152.061 43.1845 152.092L39.6846 152.549C39.3288 152.58 38.9741 152.477 38.6903 152.26C38.4066 152.043 38.2143 151.728 38.1513 151.377L31.0063 119.452C30.9991 119.392 30.9725 119.335 30.9305 119.291C30.8885 119.246 30.8333 119.217 30.7731 119.206C30.7154 119.195 30.6557 119.203 30.6026 119.228C30.5495 119.253 30.5058 119.294 30.4777 119.346L13.0777 152.137C12.986 152.302 12.8623 152.447 12.7138 152.563C12.5654 152.679 12.3952 152.764 12.2133 152.813C12.0911 152.847 11.965 152.864 11.8383 152.864Z" fill="#263238" />
        <path d="M16.0184 123.73C16.2382 123.41 16.385 123.045 16.4486 122.662C16.5121 122.279 16.4908 121.886 16.3863 121.512C16.2817 121.138 16.0963 120.791 15.8432 120.496C15.5901 120.202 15.2754 119.966 14.9213 119.806L15.1117 113.737L11.4506 112.721L11.3022 121.296C11.0727 121.909 11.076 122.584 11.3113 123.194C11.5466 123.805 11.9976 124.307 12.579 124.608C13.1603 124.908 13.8315 124.984 14.4654 124.822C15.0993 124.661 15.6519 124.272 16.0184 123.73H16.0184Z" fill="#A0616A" />
        <path d="M11.3564 117.315L11.1415 117.314C10.7874 117.311 10.4471 117.176 10.1885 116.934C9.9299 116.692 9.77193 116.361 9.74604 116.008C9.3949 111.488 8.31658 96.0905 9.18501 87.7424C9.30007 86.9634 9.57037 86.2154 9.9799 85.5427C10.3894 84.87 10.9298 84.2863 11.5691 83.8263C12.2084 83.3662 12.9336 83.0392 13.7016 82.8644C14.4697 82.6897 15.265 82.6709 16.0405 82.8091L16.264 82.8585L16.2623 83.0875C16.1828 94.0709 16.1879 104.99 16.1929 115.55C16.1936 115.873 16.0844 116.186 15.8831 116.438C15.6818 116.689 15.4006 116.865 15.0859 116.936C13.859 117.19 12.6093 117.317 11.3564 117.315Z" fill="#2196F3" />
        <path d="M19.6906 130.487C18.7535 130.483 17.8499 130.138 17.1495 129.515C16.449 128.893 15.9997 128.036 15.8859 127.106L16.1942 101.757L11.1546 89.0136C10.9425 87.3395 11.3027 85.6429 12.1767 84.1992C13.0507 82.7555 14.3871 81.6496 15.969 81.0609L17.3162 80.5557C17.5708 80.4603 17.8417 80.4161 18.1134 80.4256C18.3852 80.4351 18.6523 80.4981 18.8996 80.6111C19.1469 80.7241 19.3694 80.8848 19.5544 81.0839C19.7395 81.2831 19.8833 81.5168 19.9778 81.7717L25.1743 95.7985L25.1756 95.819C25.536 101.402 27.1622 129.187 23.9197 130.016C22.5458 130.338 21.1386 130.496 19.7275 130.487L19.6906 130.487Z" fill="#2196F3" />
        <path d="M49.6283 114.16C49.2682 114.014 48.9445 113.791 48.6801 113.506C48.4156 113.221 48.2168 112.882 48.0976 112.513C47.9784 112.143 47.9417 111.751 47.9902 111.366C48.0387 110.981 48.1711 110.61 48.3781 110.282L44.8705 105.324L47.364 102.458L52.2191 109.529C52.7484 109.913 53.1184 110.478 53.2588 111.117C53.3993 111.756 53.3005 112.424 52.9811 112.995C52.6618 113.566 52.1441 114 51.5261 114.214C50.9082 114.429 50.2329 114.41 49.6283 114.16H49.6283Z" fill="#A0616A" />
        <path d="M46.1257 107.789C45.9425 107.783 45.7633 107.734 45.6032 107.645C45.4431 107.556 45.3067 107.429 45.2056 107.277L45.1871 107.249C39.3834 98.4667 33.382 89.3856 27.2996 80.3329L27.2341 80.2354L27.3178 80.1529C27.8513 79.6551 28.48 79.2702 29.1661 79.0215C29.8521 78.7727 30.5814 78.6653 31.3101 78.7055C32.0602 78.7192 32.7991 78.8909 33.4783 79.2094C34.1576 79.5279 34.762 79.9861 35.2521 80.5541C40.5673 87.0196 48.1532 100.439 50.3515 104.398C50.4902 104.644 50.5313 104.933 50.4665 105.208C50.4017 105.482 50.2357 105.722 50.0017 105.88C48.9223 106.615 47.7661 107.23 46.5534 107.714C46.4173 107.768 46.2719 107.793 46.1257 107.789Z" fill="#2196F3" />
        <path d="M44.1772 124.838C40.7009 124.84 28.263 100.897 25.8049 96.0968L25.7837 96.0387L23.0646 81.3515C23.0151 81.0842 23.0189 80.8098 23.0757 80.544C23.1326 80.2782 23.2414 80.0263 23.3959 79.8027C23.5504 79.579 23.7476 79.3881 23.9761 79.2408C24.2046 79.0936 24.46 78.9929 24.7275 78.9445L26.1437 78.6885C27.8039 78.3843 29.5183 78.65 31.0085 79.4426C32.4986 80.2352 33.6771 81.5081 34.3525 83.0546L37.9055 97.9853L49.786 118.166C50.1762 119.03 50.2335 120.008 49.947 120.912C49.6606 121.817 49.0505 122.583 48.2336 123.066C47.026 123.796 45.7362 124.381 44.3911 124.808C44.3216 124.828 44.2496 124.838 44.1772 124.838H44.1772Z" fill="#2196F3" />
        <path d="M25.3125 70.4174H11.2814V68.7171C11.2835 66.8388 12.0308 65.0381 13.3593 63.7099C14.6878 62.3818 16.489 61.6347 18.3678 61.6326H19.5016C21.3804 61.6347 23.1816 62.3818 24.5101 63.7099C25.8386 65.0381 26.5859 66.8388 26.588 68.7171V69.1422C26.5876 69.4803 26.4531 69.8045 26.214 70.0435C25.9749 70.2826 25.6506 70.4171 25.3125 70.4174Z" fill="#263238" />
    </g>
    <defs>
        <clipPath id="clip0_32_6147">
            <rect width="210" height="157.5" fill="white" transform="translate(0 0.650146)" />
        </clipPath>
    </defs>
</svg>
