<svg width="45" height="45" fill="none" xmlns="http://www.w3.org/2000/svg"><g clip-path="url(#a)"><path d="M45 22.5C45 34.9264 34.9264 45 22.5 45S0 34.9264 0 22.5 10.0736 0 22.5 0 45 10.0736 45 22.5Z" fill="#3B82F6"/><path d="M22.5 23.7812c5.6609 0 10.25-4.589 10.25-10.25 0-5.66087-4.5891-10.24995-10.25-10.24995S12.25 7.87033 12.25 13.5312c0 5.661 4.5891 10.25 10.25 10.25ZM18.6562 23.7812c0 2.8188-2.3062 5.125-5.125 5.125M31.4688 28.9062c-2.8188 0-5.125-2.3062-5.125-5.125M16.0938 41.7188h12.8124M35.3125 36.5938H9.6875v-5.125c0-1.4094 1.1531-2.5626 2.5625-2.5626h20.5c1.4094 0 2.5625 1.1532 2.5625 2.5626v5.125Z" stroke="#fff" stroke-width="2" stroke-miterlimit="10" stroke-linecap="round" stroke-linejoin="round"/></g><defs><clipPath id="a"><rect width="45" height="45" rx="22.5" fill="#fff"/></clipPath></defs></svg>